HIERARCHY
ROOT Hips
{
	OFFSET -3.958830 18.904000 13.208200
	CHANNELS 6 Xposition Yposition Zposition Zrotation Yrotation Xrotation 
	JOINT LHipJoint
	{
		OFFSET 0.000000 0.000000 0.000000
		CHANNELS 3 Zrotation Yrotation Xrotation
		JOINT LeftUpLeg
		{
			OFFSET 1.800000 -1.400000 0.085000
			CHANNELS 3 Zrotation Yrotation Xrotation
			JOINT LeftLeg
			{
				OFFSET 2.215000 -6.000000 0.000000
				CHANNELS 3 Zrotation Yrotation Xrotation
				JOINT LeftFoot
				{
					OFFSET 2.500000 -6.900000 0.000000
					CHANNELS 3 Zrotation Yrotation Xrotation
					JOINT LeftToeBase
					{
						OFFSET 0.200000 -0.500000 1.950000
						CHANNELS 3 Zrotation Yrotation Xrotation
						End Site
						{
							OFFSET 0.000000 0.000000 0.000000
						}
					}
				}
			}
		}
	}
	JOINT RHipJoint
	{
		OFFSET 0.000000 0.000000 0.000000
		CHANNELS 3 Zrotation Yrotation Xrotation
		JOINT RightUpLeg
		{
			OFFSET -1.800000 -1.400000 0.085000
			CHANNELS 3 Zrotation Yrotation Xrotation
			JOINT RightLeg
			{
				OFFSET -2.215000 -6.000000 0.000000
				CHANNELS 3 Zrotation Yrotation Xrotation
				JOINT RightFoot
				{
					OFFSET -2.500000 -6.900000 0.000000
					CHANNELS 3 Zrotation Yrotation Xrotation
					JOINT RightToeBase
					{
						OFFSET -0.200000 -0.500000 1.950000
						CHANNELS 3 Zrotation Yrotation Xrotation
						End Site
						{
							OFFSET 0.000000 0.000000 0.000000
						}
					}
				}
			}
		}
	}
	JOINT LowerBack
	{
		OFFSET 0.000000 0.000000 0.000000
		CHANNELS 3 Zrotation Yrotation Xrotation
		JOINT Spine
		{
			OFFSET -0.087000 1.940000 -0.288900
			CHANNELS 3 Zrotation Yrotation Xrotation
			JOINT Spine1
			{
				OFFSET 0.000000 1.950000 0.060000
				CHANNELS 3 Zrotation Yrotation Xrotation
				JOINT Neck
				{
					OFFSET 0.000000 0.000000 0.000000
					CHANNELS 3 Zrotation Yrotation Xrotation
					JOINT Neck1
					{
						OFFSET 0.000000 1.600000 0.340000
						CHANNELS 3 Zrotation Yrotation Xrotation
						JOINT Head
						{
							OFFSET 0.000000 1.667000 -0.240000
							CHANNELS 3 Zrotation Yrotation Xrotation
							End Site
							{
								OFFSET 0.000000 0.000000 0.000000
							}
						}
					}
				}
				JOINT LeftShoulder
				{
					OFFSET 0.000000 0.000000 0.000000
					CHANNELS 3 Zrotation Yrotation Xrotation
					JOINT LeftArm
					{
						OFFSET 2.700000 1.550000 -0.730000
						CHANNELS 3 Zrotation Yrotation Xrotation
						JOINT LeftForeArm
						{
							OFFSET 5.450000 0.000000 0.000000
							CHANNELS 3 Zrotation Yrotation Xrotation
							JOINT LeftHand
							{
								OFFSET 3.450000 0.000000 0.000000
								CHANNELS 3 Zrotation Yrotation Xrotation
								JOINT LeftHandIndex1
								{
									OFFSET 0.750000 0.000000 0.000000
									CHANNELS 3 Zrotation Yrotation Xrotation
									End Site
									{
										OFFSET 0.000000 0.000000 0.000000
									}
								}
							}
						}
					}
				}
				JOINT RightShoulder
				{
					OFFSET 0.000000 0.000000 0.000000
					CHANNELS 3 Zrotation Yrotation Xrotation
					JOINT RightArm
					{
						OFFSET -2.700000 1.550000 -0.730000
						CHANNELS 3 Zrotation Yrotation Xrotation
						JOINT RightForeArm
						{
							OFFSET -5.450000 0.000000 0.000000
							CHANNELS 3 Zrotation Yrotation Xrotation
							JOINT RightHand
							{
								OFFSET -3.450000 0.000000 0.000000
								CHANNELS 3 Zrotation Yrotation Xrotation
								JOINT RightHandIndex1
								{
									OFFSET -0.750000 0.000000 0.000000
									CHANNELS 3 Zrotation Yrotation Xrotation
									End Site
									{
										OFFSET 0.000000 0.000000 0.000000
									}
								}
							}
						}
					}
				}
			}
		}
	}
}
MOTION
Frames: 9
Frame Time: 0.016667
-1.896340 21.181050 -8.055030 16.512923 13.021441 -45.148225 -15.751758 12.914999 4.579202 -10.476333 -7.009117 -5.134083 -4.337849 31.039345 92.115087 6.810991 12.954190 0.540282 3.379880 5.688130 1.813020 18.047312 -8.350960 3.541158 7.370514 14.516523 -12.106547 -16.936683 -2.947136 106.118468 -4.904002 -11.618368 0.900844 1.506290 -4.280350 -0.802460 -2.427778 -4.189905 -8.541558 15.609599 -7.107507 124.743197 -13.285710 -6.962933 13.362471 8.632791 -10.557068 -8.517852 -46.322049 21.236317 92.683108 37.157350 8.711250 -135.520240 -156.086656 -80.784707 177.284678 -46.497395 52.894257 -76.671265 164.485672 -58.137799 -165.432303 -1.704653 4.103146 -0.837240 -2.586290 2.100640 -1.033440 -36.044663 67.666135 30.819162 99.293644 57.825685 -103.348687 -151.478278 48.870565 -115.691079 6.102423 1.486593 3.961600 -0.843570 -1.760140 0.207330 
-1.919600 21.129840 -8.063310 16.246037 15.257064 -45.015880 -15.592919 12.645672 4.551272 -12.616783 -6.995334 -5.561760 -1.521826 28.999397 94.422783 6.691307 12.802561 0.476463 3.521060 5.800750 2.011340 18.195843 -8.723708 3.449107 6.306039 13.789404 -12.753849 -17.719624 -3.217326 107.399696 -4.963936 -11.698873 0.829974 1.533310 -4.360680 -0.798530 -2.832623 -3.377177 -8.634778 13.543000 -7.433514 124.516477 -15.236896 -6.459424 12.441063 10.516329 -8.251876 -7.917297 -43.193660 21.311643 94.872573 36.302930 8.388640 -135.100690 -156.694668 -79.696679 174.380378 -41.638485 58.480058 -71.300586 171.613357 -59.352090 -177.474178 -1.209784 4.461703 -0.761050 -2.651600 2.176980 -1.090850 -39.330915 66.227587 28.612833 104.562034 60.917715 -99.599244 -153.287695 50.930407 -111.037702 6.389827 1.983769 4.005600 -0.854340 -1.809810 0.192790 
-1.879530 21.056570 -8.047090 15.506232 17.924908 -44.097209 -15.793215 12.855555 4.804976 -14.845424 -8.863312 -7.029672 0.575481 27.428501 97.597466 6.613576 12.731678 0.359247 3.679580 5.977920 2.085450 18.010022 -8.346429 3.348172 4.040446 12.949607 -14.608642 -16.863148 -7.270194 110.763207 -5.018805 -12.045205 0.665394 1.652060 -4.449320 -0.787330 -2.316093 -4.529520 -8.544708 14.718757 -9.294268 122.628179 -12.802173 -7.399091 14.068643 7.762245 -10.221685 -9.876666 -47.361513 22.528415 95.998833 39.777500 10.882460 -133.892200 -152.416611 -84.539115 179.683474 -44.689618 41.491648 -76.886344 172.781828 -58.689505 -177.428137 -1.145445 4.298784 -0.654110 -2.752290 2.279860 -1.104000 -37.885992 63.341350 32.790205 100.349093 61.720279 -105.873482 -158.631487 52.403092 -111.270451 6.325970 2.512527 4.046860 -0.953390 -1.929470 0.253460 
-1.903200 20.959960 -8.005980 15.564767 19.370896 -43.829627 -15.889797 12.809087 4.927636 -15.624393 -9.845851 -7.997019 1.214027 27.884553 99.777413 6.159673 13.143207 -0.022064 3.677020 5.922220 2.147840 17.929927 -8.061564 3.460118 3.124419 13.234875 -15.260760 -16.644291 -11.175625 115.801144 -4.993352 -12.527157 0.408659 1.797670 -4.435960 -0.794500 -1.991469 -5.123719 -8.621799 14.885122 -8.412480 122.158027 -9.698610 -7.636402 15.226907 5.150793 -11.140230 -12.409302 -50.298920 23.551270 98.656104 41.452600 13.478040 -133.023770 35.338588 -86.191198 8.670697 -47.690246 17.869674 -83.261220 176.885240 -59.910888 178.298394 -0.951660 3.927022 -0.349910 -2.774830 2.349320 -1.257130 -39.591404 59.205549 38.606037 99.206502 64.909110 -111.692209 -174.827676 54.382031 -117.721478 6.039079 4.133086 3.818990 -0.921530 -1.902440 0.203430 
-1.912440 20.898090 -7.967180 13.878185 22.116171 -44.118424 -15.811274 12.397792 4.805645 -17.064475 -9.971381 -8.180755 5.063571 24.557938 102.539308 6.154060 12.444700 0.040553 4.092610 6.390320 2.579900 18.033328 -8.044249 3.663049 1.365234 14.024654 -16.027202 -14.334958 -19.193736 120.643270 -5.416015 -13.011792 0.310450 1.895660 -4.739950 -0.844270 -1.975970 -5.246603 -8.870904 10.742802 -5.392559 122.466720 -5.949439 -5.531430 17.595777 6.673422 -7.408624 -17.421391 -46.492023 23.744510 105.466090 35.590100 13.743040 -136.992570 40.012811 -70.385032 27.696639 -44.938130 -14.387029 -97.231317 -171.286169 -62.574889 -172.615742 -2.943984 2.465856 -0.286880 -2.988180 2.592530 -1.258460 -48.251409 51.698451 40.550269 101.498396 69.367187 -111.969424 165.644818 53.195631 -124.193081 5.865795 5.739103 4.070550 -0.937610 -2.106250 0.169020 
-1.961440 20.756570 -7.958420 11.713631 24.763013 -43.768405 -15.811079 11.815943 4.724391 -17.692661 -10.967900 -10.071587 8.984168 21.028568 105.892959 6.066310 11.966475 0.012186 4.428830 6.778370 2.896920 18.024407 -8.023604 4.128189 0.150084 15.271445 -18.183767 -12.232060 -27.904606 125.784057 -5.878557 -13.993017 0.112951 2.049490 -4.960440 -0.885700 -1.753693 -5.260671 -9.390900 6.428923 -1.026395 121.646074 -1.833791 -5.888624 20.849178 7.753921 -4.420991 -22.173141 -43.248790 24.684396 107.316805 31.757240 14.207940 -138.142410 48.596493 -50.930745 41.213940 -38.548951 -45.375053 -103.579994 -169.477917 -67.559938 -156.151663 -3.542907 -0.389802 -0.210160 -3.134080 2.802840 -1.243760 -58.811979 43.333940 41.670148 105.459234 77.110986 -108.177283 151.046382 48.169432 -130.403605 5.809618 7.108940 4.224370 -0.942790 -2.279680 0.144750 
-2.014890 20.680970 -7.943100 10.539835 26.067241 -44.118762 -15.944203 12.278820 4.640174 -17.650629 -11.484424 -10.720868 10.735993 18.517406 106.597502 5.641568 11.458326 -0.140823 4.730530 7.110410 3.348220 17.942795 -7.058639 4.416554 -0.582558 15.990562 -17.737384 -9.878415 -36.471119 129.031411 -6.421489 -15.214032 -0.142027 2.208200 -5.149170 -0.945630 -1.503658 -7.598594 -9.322741 9.394620 0.547107 121.230294 11.218034 -2.945396 25.367580 -0.067594 -8.698547 -27.776440 -31.429090 14.545236 115.849193 26.030250 15.344930 -139.280320 68.300791 -28.131854 58.484516 72.772511 -65.800573 130.176909 -135.234725 -64.499261 -129.025986 -8.380191 -12.822017 0.044720 -3.247320 3.064140 -1.360420 -60.842728 31.265953 52.073272 86.394927 76.433880 -105.878086 165.187970 52.426317 -140.829448 6.007488 5.663010 4.236410 -0.821520 -2.369820 0.010270 
-2.081330 20.581680 -7.942560 6.806018 27.150584 -45.479173 -15.651031 10.993309 4.146694 -14.007057 -13.239355 -11.145062 8.434547 21.298075 107.462632 5.190591 11.958399 -0.548174 4.755620 7.098980 3.637540 18.367668 -7.253847 4.497383 -0.104770 16.342457 -18.268974 -7.944821 -44.305058 131.349591 -6.818324 -16.545496 -0.467133 2.283510 -5.213420 -0.925290 -3.300076 -4.030262 -10.085339 -1.384356 6.413290 122.315406 10.068360 1.967540 27.582596 1.576829 -4.062525 -30.110332 -22.484957 12.957991 118.478426 18.638940 17.853470 -141.629810 60.620813 -29.840655 49.024389 48.676794 -81.426977 116.933647 -110.906967 -39.093882 -98.516848 1.751182 -17.779954 0.394719 -3.234260 3.264450 -1.566880 -59.993473 38.268494 37.287460 62.946623 65.250737 -102.231905 -173.414516 50.882607 -158.552328 4.415149 2.165162 4.036810 -0.717490 -2.321910 -0.204500 
-1.976560 20.507580 -7.984750 1.505427 24.868630 -46.761749 -15.480087 10.542768 3.697254 -9.827861 -13.432796 -13.190259 10.998793 19.435457 110.055459 5.079283 11.583145 -0.592808 5.101600 7.494150 4.073390 18.588995 -6.916962 4.859181 1.420873 18.468001 -18.523979 -1.478601 -54.784696 129.816984 -7.571271 -18.484011 -0.725163 2.359240 -5.403540 -0.950440 -3.956871 -3.301684 -9.981608 -4.943747 9.646915 121.793347 16.024905 6.345125 21.169455 1.930201 -3.484684 -24.908136 -18.656435 12.027039 122.100659 9.965810 14.370760 -142.528400 54.496210 -40.917141 47.267500 58.118327 -86.690284 119.750424 -116.575938 -58.290148 -81.487753 4.461019 -16.559673 0.447600 -3.333380 3.482910 -1.590210 -54.319143 50.161103 28.790529 53.526370 44.018459 -99.751385 -170.036218 49.751742 -166.445995 3.531693 0.235966 4.226280 -0.648600 -2.432790 -0.273280 
